<svg xmlns="http://www.w3.org/2000/svg" xmlns:xlink="http://www.w3.org/1999/xlink" version="1.1" x="0px" y="0px" viewBox="0 0 100 100" enable-background="new 0 0 100 100" xml:space="preserve"><ellipse cx="50.467" cy="24.77" rx="19.826" ry="21.021"></ellipse><path d="M86.027,71.554c-0.805-6.994-2.883-16.588-5.801-21.419c-1.905-3.155-5.674-5.797-11.662-7.507l-6.742,13.674l-5.336-7.153  v-0.001c-1.922,0.534-3.939,0.817-6.019,0.817c-2.039,0-4.017-0.273-5.904-0.785l-5.313,7.123l-6.759-13.707  c-6.056,1.707-9.862,4.365-11.779,7.54c-2.919,4.832-4.996,14.425-5.802,21.419c-0.205,1.204-0.453,4.527-0.395,5.027  c1.286,10.912,17.877,19.571,34.942,19.871c0.336,0.004,0.673,0.009,1.011,0.009c0.339,0,0.675-0.005,1.011-0.009  c16.585-0.219,33.656-8.959,34.942-19.871C86.481,76.081,86.178,72.839,86.027,71.554z"></path></svg>